PathFileType  4	(X/Y/Z) C:\Users\wagnerel85475\Documents\Thesis\opencap-core\Data\3375ffbc-daeb-4a43-b4f7-ac9899cd4c71\MarkerData\PreAugmentation
DataRate	CameraRate	NumFrames	NumMarkers	Units	OrigDataRate	OrigDataStartFrame	OrigNumFrames
60.0	60.0	11	20	m	60.0	309	822
Frame#	Time	Neck			RShoulder			RElbow			RWrist			LShoulder			LElbow			LWrist			midHip			RHip			RKnee			RAnkle			LHip			LKnee			LAnkle			LBigToe			LSmallToe			LHeel			RBigToe			RSmallToe			RHeel			
		X1	Y1	Z1	X2	Y2	Z2	X3	Y3	Z3	X4	Y4	Z4	X5	Y5	Z5	X6	Y6	Z6	X7	Y7	Z7	X8	Y8	Z8	X9	Y9	Z9	X10	Y10	Z10	X11	Y11	Z11	X12	Y12	Z12	X13	Y13	Z13	X14	Y14	Z14	X15	Y15	Z15	X16	Y16	Z16	X17	Y17	Z17	X18	Y18	Z18	X19	Y19	Z19	X20	Y20	Z20	

309	5.1333333	0.7984000	0.5613900	-0.0283200	0.8124300	0.5619900	0.1328900	1.0500100	0.4098300	0.1990600	1.3548400	0.4663600	0.1173100	0.8123600	0.5704900	-0.1958400	1.1385800	0.4151100	-0.2348400	1.4232600	0.4940400	-0.0748800	0.3534900	0.1798100	-0.0897400	0.3869200	0.1856000	0.0297800	0.7889900	0.2514000	0.2014700	0.5408200	-0.1848500	0.1255200	0.3545100	0.1866500	-0.2056500	0.7718800	0.2769000	-0.2921800	0.5359200	-0.1999400	-0.2536800	0.7594900	-0.2303900	-0.3284000	0.7148000	-0.2303200	-0.3501600	0.4729000	-0.2423100	-0.2421400	0.6949400	-0.2398500	0.2425200	0.6600000	-0.2352400	0.2570100	0.5231000	-0.2144500	0.0899000
310	5.1500000	0.8032000	0.5480100	-0.0261100	0.8126600	0.5552000	0.1331800	1.0481700	0.4001300	0.2022100	1.3659700	0.4585300	0.1278900	0.8119300	0.5498200	-0.1908300	1.1285200	0.4036100	-0.2233900	1.4191100	0.4779600	-0.0817100	0.3329600	0.1590700	-0.0900100	0.3775300	0.1664400	0.0193700	0.7930300	0.2547900	0.2042200	0.5413300	-0.1849900	0.1255000	0.3340700	0.1655800	-0.2027000	0.7766300	0.2815900	-0.2892900	0.5358000	-0.2000700	-0.2534800	0.7596300	-0.2305300	-0.3284500	0.7095200	-0.2320500	-0.3516200	0.4797900	-0.2396900	-0.2404500	0.7015000	-0.2397200	0.2433700	0.6609800	-0.2350600	0.2571000	0.5242500	-0.2175700	0.0906300
311	5.1666667	0.7986700	0.5409800	-0.0283700	0.8112800	0.5515900	0.1238900	1.0367600	0.3973800	0.2020500	1.3430300	0.4482300	0.1163100	0.8125800	0.5436500	-0.1914200	1.1236200	0.3961000	-0.2283000	1.4236300	0.4696500	-0.0788400	0.3066300	0.1406500	-0.0734400	0.3687400	0.1613400	0.0385900	0.7947300	0.2516000	0.2036200	0.5416700	-0.1866500	0.1254400	0.3079500	0.1535700	-0.1882200	0.7818000	0.2880800	-0.2917600	0.5411600	-0.1960500	-0.2511900	0.7595900	-0.2283000	-0.3280900	0.7098700	-0.2318300	-0.3516700	0.4784800	-0.2376100	-0.2402700	0.7022500	-0.2426700	0.2435400	0.6669700	-0.2352700	0.2584400	0.5228000	-0.2171700	0.0905800
312	5.1833333	0.7928000	0.5339700	-0.0297500	0.8176600	0.5357400	0.1304900	1.0434600	0.3907500	0.2004900	1.3403100	0.4416800	0.1140500	0.8114800	0.5403300	-0.1954000	1.1388200	0.3863100	-0.2240500	1.4208300	0.4656900	-0.0782500	0.3397200	0.1424900	-0.0877600	0.3769100	0.1460700	0.0289000	0.8093000	0.2653000	0.2096100	0.5353000	-0.1869400	0.1237100	0.3449300	0.1522100	-0.2004500	0.7812000	0.2853600	-0.2917800	0.5358200	-0.2000400	-0.2534900	0.7596600	-0.2305000	-0.3284200	0.7144300	-0.2303000	-0.3493900	0.4737600	-0.2397100	-0.2423100	0.7015400	-0.2397000	0.2433800	0.6668100	-0.2329300	0.2586700	0.5183400	-0.2195600	0.0887600
313	5.2000000	0.7935300	0.5298400	-0.0302000	0.8183400	0.5278400	0.1298100	1.0406900	0.3804200	0.2026600	1.3537000	0.4354200	0.1261500	0.8129500	0.5385600	-0.1957900	1.1350700	0.3779900	-0.2286600	1.4130700	0.4587700	-0.0811300	0.3838300	0.1417300	-0.0916700	0.4044000	0.1447900	0.0298500	0.8103000	0.2654400	0.2088500	0.5348600	-0.1868600	0.1237200	0.3593200	0.1458200	-0.2054200	0.7824000	0.2885900	-0.2912500	0.5359100	-0.1999600	-0.2536800	0.7595300	-0.2303500	-0.3283900	0.7100600	-0.2336800	-0.3512800	0.4727700	-0.2396400	-0.2425300	0.7055800	-0.2382900	0.2410300	0.6707900	-0.2295300	0.2555400	0.5171300	-0.2181300	0.0884000
314	5.2166667	0.7875700	0.5248800	-0.0317200	0.8083600	0.5234000	0.1356800	1.0423600	0.3751200	0.1997200	1.3622700	0.4373400	0.1257300	0.8075600	0.5325500	-0.1973000	1.1332800	0.3774100	-0.2247900	1.4009700	0.4505500	-0.0875800	0.4075300	0.1409100	-0.0913000	0.4265400	0.1361300	0.0183600	0.8150800	0.2644500	0.2109800	0.5352200	-0.1887900	0.1240500	0.3664700	0.1367900	-0.2051300	0.7815500	0.2858200	-0.2869600	0.5410800	-0.1961400	-0.2510200	0.7596300	-0.2305500	-0.3284100	0.7097100	-0.2339300	-0.3512200	0.4736800	-0.2395800	-0.2422900	0.7062400	-0.2379200	0.2407000	0.6658600	-0.2313700	0.2540800	0.5182900	-0.2195600	0.0887800
315	5.2333333	0.7882700	0.5207500	-0.0321800	0.8088300	0.5237800	0.1350400	1.0409400	0.3743100	0.2028300	1.3608300	0.4359400	0.1258300	0.8082100	0.5293400	-0.1978600	1.1391900	0.3769900	-0.2268000	1.3988100	0.4497900	-0.0890900	0.4023400	0.1323700	-0.0904000	0.4085400	0.1238700	0.0177700	0.8055400	0.2662700	0.2117500	0.5347600	-0.1887600	0.1240800	0.3713400	0.1320500	-0.1984400	0.7826700	0.2870200	-0.2910200	0.5411900	-0.1960100	-0.2511900	0.7546500	-0.2321400	-0.3306000	0.7100000	-0.2337700	-0.3513000	0.4841000	-0.2326000	-0.2366100	0.7056200	-0.2383900	0.2410600	0.6706600	-0.2315800	0.2559200	0.5171800	-0.2198700	0.0887900
316	5.2500000	0.7826000	0.5195900	-0.0340600	0.8083600	0.5233400	0.1356600	1.0382300	0.3764200	0.1985400	1.3542300	0.4370700	0.1222200	0.8071100	0.5297300	-0.1973600	1.1456400	0.3784600	-0.2271000	1.4156200	0.4610000	-0.0796600	0.4072900	0.1339400	-0.0867400	0.4173100	0.1286600	0.0182100	0.8061100	0.2664100	0.2162400	0.5411200	-0.1868300	0.1258100	0.3702200	0.1308200	-0.1980200	0.7816500	0.2860200	-0.2913800	0.5411200	-0.1960700	-0.2509900	0.7547000	-0.2323500	-0.3306300	0.7096200	-0.2339800	-0.3512600	0.4908400	-0.2288900	-0.2338100	0.7063000	-0.2380700	0.2407300	0.6716100	-0.2314500	0.2560100	0.5183100	-0.2195800	0.0888000
317	5.2666667	0.7831100	0.5239000	-0.0341700	0.8069700	0.5303300	0.1310100	1.0153400	0.3798800	0.1873400	1.3559100	0.4404800	0.1202100	0.8086900	0.5320200	-0.1978000	1.1436100	0.3797400	-0.2286700	1.4172600	0.4682700	-0.0706500	0.3847100	0.1327600	-0.0821000	0.4138500	0.1370200	0.0249800	0.8003400	0.2630500	0.2097600	0.5407200	-0.1868000	0.1258500	0.3554900	0.1299900	-0.2003900	0.7882800	0.2864400	-0.2930300	0.5411800	-0.1960200	-0.2511700	0.7545800	-0.2342700	-0.3309500	0.7050500	-0.2376600	-0.3538500	0.4898300	-0.2288100	-0.2340200	0.7056700	-0.2384200	0.2410500	0.6706900	-0.2316100	0.2559100	0.5230900	-0.2178600	0.0906100
318	5.2833333	0.7869500	0.5311300	-0.0359400	0.8043700	0.5377500	0.1230200	0.9967100	0.3953000	0.1811100	1.2837600	0.4502300	0.0933700	0.8114400	0.5364400	-0.1998600	1.1415800	0.3806300	-0.2250600	1.4043700	0.4659100	-0.0768300	0.3945200	0.1394800	-0.1006000	0.4235000	0.1462100	0.0152200	0.7909200	0.2510200	0.2054000	0.5411100	-0.1868600	0.1258200	0.3604700	0.1356000	-0.2075900	0.7879400	0.2836400	-0.2931100	0.5411200	-0.1960600	-0.2509900	0.7498500	-0.2361500	-0.3331500	0.7048500	-0.2396900	-0.3534100	0.4905500	-0.2264700	-0.2341800	0.7066200	-0.2403300	0.2403300	0.6718300	-0.2295500	0.2556600	0.5189400	-0.2194700	0.0932500
319	5.3000000	0.7881400	0.5351900	-0.0320000	0.8123500	0.5474500	0.1281500	1.0070900	0.3950800	0.1884700	1.3480000	0.4526200	0.1218500	0.8128500	0.5420600	-0.1957500	1.1267100	0.3941700	-0.2261400	1.4120800	0.4702300	-0.0799600	0.3467700	0.1363800	-0.0956800	0.3712500	0.1442000	0.0166400	0.7859500	0.2541300	0.2083400	0.5407100	-0.1867800	0.1258400	0.3474800	0.1458900	-0.2049900	0.7932100	0.2885200	-0.2953800	0.5412500	-0.1938600	-0.2508500	0.7545800	-0.2343000	-0.3309700	0.7099200	-0.2359900	-0.3516300	0.4898700	-0.2287800	-0.2340100	0.7056300	-0.2384000	0.2410600	0.6706700	-0.2315700	0.2559100	0.5178600	-0.2197600	0.0932300
